<svg xmlns="http://www.w3.org/2000/svg" xmlns:xlink="http://www.w3.org/1999/xlink" width="500" zoomAndPan="magnify" viewBox="0 0 375 374.999991" height="500" preserveAspectRatio="xMidYMid meet" version="1.0"><defs><clipPath id="03f7c7c43c"><path d="M 34.375 37.5 L 340.375 37.5 L 340.375 335 L 34.375 335 Z M 34.375 37.5 " clip-rule="nonzero"/></clipPath></defs><g clip-path="url(#03f7c7c43c)"><path fill="#ffffff" d="M 163.769531 254.328125 C 124.320312 249.542969 96.53125 221.128906 96.53125 184.34375 C 96.53125 169.390625 101.910156 153.242188 110.875 142.476562 C 106.992188 132.605469 107.589844 111.671875 112.070312 102.996094 C 124.023438 101.503906 140.160156 107.78125 149.722656 116.457031 C 161.078125 112.867188 173.03125 111.074219 187.671875 111.074219 C 202.316406 111.074219 214.269531 112.867188 225.027344 116.15625 C 234.292969 107.78125 250.726562 101.503906 262.679688 102.996094 C 266.863281 111.074219 267.460938 132.007812 263.574219 142.175781 C 273.136719 153.539062 278.21875 168.792969 278.21875 184.34375 C 278.21875 221.128906 250.429688 248.941406 210.382812 254.027344 C 220.542969 260.605469 227.417969 274.960938 227.417969 291.410156 L 227.417969 322.515625 C 227.417969 331.484375 234.886719 336.570312 243.855469 332.980469 C 297.941406 312.347656 340.375 258.214844 340.375 191.222656 C 340.375 106.585938 271.644531 37.5 187.078125 37.5 C 102.507812 37.5 34.375 106.585938 34.375 191.222656 C 34.375 257.617188 76.507812 312.644531 133.285156 333.28125 C 141.355469 336.269531 149.125 330.886719 149.125 322.8125 L 149.125 298.886719 C 144.941406 300.683594 139.5625 301.878906 134.78125 301.878906 C 115.058594 301.878906 103.402344 291.113281 95.035156 271.074219 C 91.75 263 88.164062 258.214844 81.292969 257.316406 C 77.707031 257.019531 76.507812 255.523438 76.507812 253.726562 C 76.507812 250.140625 82.484375 247.449219 88.464844 247.449219 C 97.128906 247.449219 104.597656 252.832031 112.367188 263.898438 C 118.347656 272.570312 124.621094 276.457031 132.089844 276.457031 C 139.5625 276.457031 144.34375 273.765625 151.214844 266.886719 C 156.296875 261.804688 160.179688 257.316406 163.769531 254.328125 Z M 163.769531 254.328125 " fill-opacity="1" fill-rule="nonzero"/></g></svg>