<svg xmlns="http://www.w3.org/2000/svg" xmlns:xlink="http://www.w3.org/1999/xlink" width="500" zoomAndPan="magnify" viewBox="0 0 375 374.999991" height="500" preserveAspectRatio="xMidYMid meet" version="1.0"><defs><clipPath id="5da435cb70"><path d="M 43.070312 44.386719 L 332.144531 44.386719 L 332.144531 330.878906 L 43.070312 330.878906 Z M 43.070312 44.386719 " clip-rule="nonzero"/></clipPath></defs><g clip-path="url(#5da435cb70)"><path fill="#ffffff" d="M 153.941406 148.667969 L 153.941406 121.449219 C 153.941406 119.160156 154.804688 117.4375 156.808594 116.292969 L 211.53125 84.78125 C 218.980469 80.484375 227.859375 78.480469 237.027344 78.480469 C 271.40625 78.480469 293.179688 105.125 293.179688 133.484375 C 293.179688 135.488281 293.179688 137.78125 292.894531 140.074219 L 236.167969 106.839844 C 232.730469 104.835938 229.289062 104.835938 225.851562 106.839844 Z M 281.71875 254.671875 L 281.71875 189.636719 C 281.71875 185.625 280 182.757812 276.5625 180.753906 L 204.652344 138.925781 L 228.144531 125.460938 C 230.148438 124.316406 231.871094 124.316406 233.875 125.460938 L 288.597656 156.976562 C 304.355469 166.144531 314.953125 185.625 314.953125 204.53125 C 314.953125 226.304688 302.0625 246.359375 281.71875 254.667969 Z M 137.039062 197.375 L 113.546875 183.621094 C 111.542969 182.476562 110.683594 180.757812 110.683594 178.464844 L 110.683594 115.4375 C 110.683594 84.78125 134.175781 61.574219 165.976562 61.574219 C 178.011719 61.574219 189.183594 65.585938 198.640625 72.75 L 142.199219 105.410156 C 138.761719 107.414062 137.042969 110.28125 137.042969 114.292969 L 137.042969 197.375 Z M 187.605469 226.59375 L 153.941406 207.6875 L 153.941406 167.578125 L 187.605469 148.671875 L 221.269531 167.578125 L 221.269531 207.6875 Z M 209.238281 313.691406 C 197.203125 313.691406 186.03125 309.679688 176.574219 302.515625 L 233.015625 269.855469 C 236.453125 267.851562 238.171875 264.984375 238.171875 260.972656 L 238.171875 177.890625 L 261.953125 191.640625 C 263.957031 192.785156 264.816406 194.503906 264.816406 196.796875 L 264.816406 259.824219 C 264.816406 290.480469 241.035156 313.6875 209.238281 313.6875 Z M 141.335938 249.800781 L 86.617188 218.289062 C 70.859375 209.117188 60.257812 189.640625 60.257812 170.730469 C 60.257812 148.671875 73.4375 128.902344 93.777344 120.59375 L 93.777344 185.914062 C 93.777344 189.925781 95.496094 192.792969 98.933594 194.796875 L 170.558594 236.335938 L 147.066406 249.800781 C 145.0625 250.945312 143.34375 250.945312 141.335938 249.800781 Z M 138.1875 296.785156 C 105.8125 296.785156 82.035156 272.433594 82.035156 242.351562 C 82.035156 240.0625 82.320312 237.769531 82.605469 235.476562 L 139.046875 268.136719 C 142.480469 270.140625 145.921875 270.140625 149.359375 268.136719 L 221.269531 226.597656 L 221.269531 253.8125 C 221.269531 256.105469 220.410156 257.828125 218.402344 258.972656 L 163.683594 290.484375 C 156.234375 294.78125 147.351562 296.785156 138.183594 296.785156 Z M 209.238281 330.878906 C 243.902344 330.878906 272.835938 306.242188 279.429688 273.578125 C 311.515625 265.269531 332.144531 235.1875 332.144531 204.535156 C 332.144531 184.480469 323.550781 165 308.078125 150.960938 C 309.511719 144.945312 310.371094 138.925781 310.371094 132.914062 C 310.371094 91.945312 277.136719 61.289062 238.746094 61.289062 C 231.011719 61.289062 223.5625 62.433594 216.113281 65.011719 C 203.21875 52.40625 185.457031 44.386719 165.976562 44.386719 C 131.3125 44.386719 102.378906 69.023438 95.785156 101.683594 C 63.699219 109.992188 43.070312 140.074219 43.070312 170.726562 C 43.070312 190.785156 51.664062 210.261719 67.136719 224.300781 C 65.703125 230.320312 64.84375 236.335938 64.84375 242.351562 C 64.84375 283.316406 98.078125 313.976562 136.46875 313.976562 C 144.203125 313.976562 151.652344 312.832031 159.101562 310.25 C 171.992188 322.855469 189.753906 330.878906 209.238281 330.878906 Z M 209.238281 330.878906 " fill-opacity="1" fill-rule="nonzero"/></g></svg>